# xmcd CD database file
#
# Track frame offsets:
#	150
#	17642
#	35387
#	52495
#	69860
#	87227
#	99122
#	112240
#	183047
#
# Disc length: 2675 seconds
#
# Revision: 5
# Processed by: cddbd v1.5.2PL0 Copyright (c) Steve Scherf et al.
# Submitted via: CDex 1.51
#
DISCID=6d0a7109
DTITLE=Kenny Rogers -  - The Gift
DYEAR=1996
DGENRE=Christmas Music
TTITLE0=Kenny Rogers - Mary, Did You Know
TTITLE1=Kenny Rogers - A Soldier's King
TTITLE2=Kenny Rogers - Pretty Little Baby Child
TTITLE3=Kenny Rogers - What A Wonderful Beginning
TTITLE4=Kenny Rogers - It's The Messiah
TTITLE5=Kenny Rogers - I Trust You
TTITLE6=Kenny Rogers - Sweet Little Jesus Boy
TTITLE7=Kenny Rogers - The Chosen One Montage
TTITLE8=Kenny Rogers - 'Til The Season Comes 'Round Again
EXTD=YEAR: 1996
EXTT0=
EXTT1=
EXTT2=
EXTT3=
EXTT4=
EXTT5=
EXTT6=
EXTT7=
EXTT8=
PLAYORDER=
